<svg xmlns="http://www.w3.org/2000/svg" viewBox="0 0 1600 700" role="img" aria-label="Xưởng sản xuất nội thất ANSLIFE">
  <defs>
    <linearGradient id="bg" x1="0" y1="0" x2="1" y2="1">
      <stop offset="0" stop-color="#10253b"/>
      <stop offset="0.45" stop-color="#17324b"/>
      <stop offset="1" stop-color="#2a4f6f"/>
    </linearGradient>
    <linearGradient id="floor" x1="0" y1="0" x2="0" y2="1">
      <stop offset="0" stop-color="#8ba0b3" stop-opacity="0.22"/>
      <stop offset="1" stop-color="#d5dde5" stop-opacity="0.06"/>
    </linearGradient>
    <linearGradient id="machineBody" x1="0" y1="0" x2="0" y2="1">
      <stop offset="0" stop-color="#d2dce6"/>
      <stop offset="1" stop-color="#9fb1c1"/>
    </linearGradient>
    <linearGradient id="wood" x1="0" y1="0" x2="1" y2="1">
      <stop offset="0" stop-color="#d9ae72"/>
      <stop offset="1" stop-color="#ba8450"/>
    </linearGradient>
    <linearGradient id="belt" x1="0" y1="0" x2="1" y2="0">
      <stop offset="0" stop-color="#475a6c"/>
      <stop offset="1" stop-color="#36485a"/>
    </linearGradient>
    <linearGradient id="accent" x1="0" y1="0" x2="1" y2="1">
      <stop offset="0" stop-color="#3bc086"/>
      <stop offset="1" stop-color="#248f63"/>
    </linearGradient>
    <filter id="glow" x="-20%" y="-20%" width="140%" height="140%">
      <feGaussianBlur stdDeviation="7"/>
    </filter>
  </defs>

  <rect width="1600" height="700" fill="url(#bg)"/>

  <g opacity="0.32" stroke="#93abc0" stroke-width="3">
    <path d="M0 84H1600"/>
    <path d="M0 168H1600"/>
    <path d="M0 252H1600"/>
    <path d="M0 336H1600"/>
    <path d="M0 420H1600"/>
  </g>
  <g opacity="0.18" stroke="#89a1b7" stroke-width="2">
    <path d="M160 0V700"/>
    <path d="M340 0V700"/>
    <path d="M520 0V700"/>
    <path d="M700 0V700"/>
    <path d="M880 0V700"/>
    <path d="M1060 0V700"/>
    <path d="M1240 0V700"/>
    <path d="M1420 0V700"/>
  </g>

  <g opacity="0.42" filter="url(#glow)">
    <circle cx="320" cy="122" r="26" fill="#b9d8ef"/>
    <circle cx="760" cy="106" r="30" fill="#b9d8ef"/>
    <circle cx="1190" cy="126" r="24" fill="#b9d8ef"/>
  </g>

  <g opacity="0.65">
    <polygon points="0,500 1600,500 1600,700 0,700" fill="url(#floor)"/>
    <polygon points="0,500 1600,500 1510,554 92,554" fill="#5c7186" opacity="0.34"/>
  </g>

  <g opacity="0.75">
    <rect x="60" y="208" width="212" height="270" rx="10" fill="#39506a"/>
    <rect x="84" y="236" width="164" height="18" rx="3" fill="url(#wood)"/>
    <rect x="84" y="266" width="164" height="18" rx="3" fill="url(#wood)"/>
    <rect x="84" y="296" width="164" height="18" rx="3" fill="url(#wood)"/>
    <rect x="84" y="326" width="164" height="18" rx="3" fill="url(#wood)"/>
    <rect x="84" y="356" width="164" height="18" rx="3" fill="url(#wood)"/>
  </g>

  <g transform="translate(420 198)">
    <rect x="0" y="132" width="664" height="38" rx="8" fill="#2c3f51"/>
    <rect x="8" y="142" width="648" height="20" rx="5" fill="url(#belt)"/>
    <rect x="66" y="146" width="96" height="12" rx="2" fill="url(#wood)"/>
    <rect x="192" y="146" width="102" height="12" rx="2" fill="url(#wood)"/>
    <rect x="328" y="146" width="108" height="12" rx="2" fill="url(#wood)"/>
    <rect x="470" y="146" width="92" height="12" rx="2" fill="url(#wood)"/>
  </g>

  <g transform="translate(575 110)">
    <rect x="0" y="90" width="470" height="320" rx="16" fill="#24384a" opacity="0.45"/>
    <rect x="24" y="114" width="422" height="268" rx="14" fill="url(#machineBody)"/>
    <rect x="40" y="134" width="390" height="34" rx="6" fill="#7c91a5"/>
    <rect x="178" y="170" width="110" height="20" rx="5" fill="#50677e"/>
    <rect x="106" y="216" width="254" height="146" rx="8" fill="#e7edf4"/>
    <rect x="128" y="236" width="210" height="98" rx="6" fill="#b9c8d6"/>
    <rect x="92" y="128" width="36" height="208" rx="8" fill="#5f7690"/>
    <rect x="342" y="128" width="36" height="208" rx="8" fill="#5f7690"/>
    <rect x="120" y="206" width="230" height="16" rx="4" fill="#4f657b"/>
    <rect x="196" y="88" width="84" height="34" rx="6" fill="#303f4f"/>
    <rect x="208" y="62" width="58" height="28" rx="6" fill="#2c3a48"/>
    <path d="M237 60 C244 38, 282 36, 306 54 C327 68, 326 94, 300 116" fill="none" stroke="#f4a24b" stroke-width="20" stroke-linecap="round"/>
    <path d="M300 116 C294 130, 282 145, 262 156" fill="none" stroke="#d9872f" stroke-width="18" stroke-linecap="round"/>
    <rect x="243" y="149" width="26" height="28" rx="4" fill="#2f9d6a"/>
    <circle cx="256" cy="180" r="9" fill="#1f7b51"/>
  </g>

  <g transform="translate(1122 198)" opacity="0.88">
    <rect x="0" y="164" width="392" height="34" rx="6" fill="#2f455a"/>
    <rect x="14" y="172" width="364" height="16" rx="4" fill="#41586f"/>
    <rect x="56" y="106" width="118" height="60" rx="6" fill="#87a0b8"/>
    <rect x="206" y="106" width="124" height="60" rx="6" fill="#90a7be"/>
    <rect x="88" y="64" width="10" height="42" fill="#6b8197"/>
    <rect x="154" y="64" width="10" height="42" fill="#6b8197"/>
    <rect x="238" y="64" width="10" height="42" fill="#6b8197"/>
    <rect x="306" y="64" width="10" height="42" fill="#6b8197"/>
    <path d="M88 64L154 64L122 40Z" fill="#6e879f"/>
    <path d="M238 64L306 64L272 40Z" fill="#6e879f"/>
    <rect x="70" y="42" width="14" height="10" rx="2" fill="url(#accent)"/>
    <rect x="288" y="42" width="14" height="10" rx="2" fill="url(#accent)"/>
  </g>

  <g opacity="0.82">
    <path d="M500 470 C520 446, 554 446, 572 470 L572 548 L500 548Z" fill="#213547"/>
    <rect x="516" y="422" width="40" height="52" rx="16" fill="#2f4a60"/>
    <rect x="525" y="400" width="22" height="30" rx="9" fill="#89a8c5"/>
    <rect x="519" y="548" width="14" height="54" rx="5" fill="#2a4055"/>
    <rect x="540" y="548" width="14" height="54" rx="5" fill="#2a4055"/>
  </g>

  <g opacity="0.86">
    <path d="M1070 472 C1086 452, 1118 452, 1136 472 L1136 548 L1070 548Z" fill="#24394d"/>
    <rect x="1085" y="428" width="36" height="48" rx="14" fill="#345169"/>
    <rect x="1092" y="404" width="22" height="28" rx="9" fill="#8facca"/>
    <rect x="1089" y="548" width="14" height="52" rx="5" fill="#2a4258"/>
    <rect x="1110" y="548" width="14" height="52" rx="5" fill="#2a4258"/>
    <rect x="1133" y="498" width="42" height="12" rx="3" fill="#2f9d6a"/>
  </g>

  <g opacity="0.92">
    <rect x="124" y="516" width="1340" height="12" rx="6" fill="#9cb1c4" opacity="0.42"/>
    <rect x="124" y="576" width="1340" height="9" rx="5" fill="#8398ad" opacity="0.35"/>
  </g>

  <rect width="1600" height="700" fill="#0f2135" opacity="0.14"/>
</svg>
